Description
Hello Memsaheb [2011] Dvdscr Bengali Movie.avi



Format : AVI
Format/Info : Audio Video Interleave
File size : 553 MiB
Duration : 2h 35mn
Overall bit rate : 496 Kbps

Video
ID : 1
Format : mp43
Codec ID : mp43
Duration : 2h 35mn
Bit rate : 384 Kbps
Width : 608 pixels
Height : 256 pixels
Display aspect ratio : 2.40:1
Frame rate : 23.976 fps
Bits/(Pixel*Frame) : 0.103
Stream size : 428 MiB (77%)

Audio
ID : 1
Format : MPEG Audio
Format version : Version 1
Format profile : Layer 3
Mode : Joint stereo
Codec ID : 55
Codec ID/Hint : MP3
Duration : 2h 35mn
Bit rate mode : Constant
Bit rate : 96.0 Kbps
Channel(s) : 2 channels
Sampling rate : 44.1 KHz
Compression mode : Lossy
Stream size : 107 MiB (19%)
Alignment : Aligned on interleaves
Interleave, duration : 26 ms (0.63 video frame)
Writing library : LAME3.98.2
